<?xml version="1.0" encoding="UTF-8" standalone="no"?>
<!-- Created with Inkscape (http://www.inkscape.org/) -->

<svg
   width="186.53036mm"
   height="142.05673mm"
   viewBox="0 0 186.53036 142.05673"
   version="1.1"
   id="svg5"
   inkscape:version="1.1.1 (3bf5ae0d25, 2021-09-20)"
   sodipodi:docname="icon.svg"
   xmlns:inkscape="http://www.inkscape.org/namespaces/inkscape"
   xmlns:sodipodi="http://sodipodi.sourceforge.net/DTD/sodipodi-0.dtd"
   xmlns="http://www.w3.org/2000/svg"
   xmlns:svg="http://www.w3.org/2000/svg">
  <sodipodi:namedview
     id="namedview7"
     pagecolor="#ffffff"
     bordercolor="#666666"
     borderopacity="1.0"
     inkscape:pageshadow="2"
     inkscape:pageopacity="0.0"
     inkscape:pagecheckerboard="0"
     inkscape:document-units="mm"
     showgrid="false"
     inkscape:zoom="0.2595304"
     inkscape:cx="26.971792"
     inkscape:cy="849.61145"
     inkscape:window-width="1920"
     inkscape:window-height="1009"
     inkscape:window-x="1912"
     inkscape:window-y="-8"
     inkscape:window-maximized="1"
     inkscape:current-layer="layer1"
     fit-margin-top="0"
     fit-margin-left="0"
     fit-margin-right="0"
     fit-margin-bottom="0"
     inkscape:lockguides="true" />
  <defs
     id="defs2" />
  <g
     inkscape:label="Warstwa 1"
     inkscape:groupmode="layer"
     id="layer1"
     transform="translate(-15.037175,-36.828335)">
    <path
       sodipodi:type="star"
       style="fill:#7d7d7d;fill-opacity:1;stroke-width:1.88976;stroke-linecap:round;stroke-linejoin:round;paint-order:stroke markers fill"
       id="path1487"
       inkscape:flatsided="true"
       sodipodi:sides="6"
       sodipodi:cx="456.3642"
       sodipodi:cy="373.26505"
       sodipodi:r1="167.28902"
       sodipodi:r2="144.87654"
       sodipodi:arg1="0.52359878"
       sodipodi:arg2="1.0471976"
       inkscape:rounded="0"
       inkscape:randomized="0"
       d="m 601.24073,456.90955 -144.87653,83.64451 -144.87654,-83.64451 0,-167.28901 144.87654,-83.64451 144.87654,83.64451 z"
       transform="matrix(0.32275688,0,0,0.32275688,7.5129601,4.4175199)"
       inkscape:transform-center-x="3.0017773e-06"
       inkscape:transform-center-y="-2.4759993e-06" />
    <path
       style="fill:#7d7d7d;fill-opacity:1;stroke:none;stroke-width:0.264583px;stroke-linecap:butt;stroke-linejoin:miter;stroke-opacity:1"
       d="m 61.805338,43.837187 c 0.892035,-0.127434 11.341597,-7.008852 11.341597,-7.008852 l 53.649575,31.603552 -10.57699,7.008855 z"
       id="path5141" />
    <path
       style="fill:#535353;fill-opacity:1;stroke:none;stroke-width:0.264583px;stroke-linecap:butt;stroke-linejoin:miter;stroke-opacity:1"
       d="m 38.35754,85.125701 c 2.548673,1.529204 54.28675,31.221259 54.28675,31.221259 l 0.127434,13.38053 -54.541618,-31.985855 z"
       id="path7582" />
    <path
       style="fill:#7d7d7d;fill-opacity:1;stroke:none;stroke-width:0.264583px;stroke-linecap:butt;stroke-linejoin:miter;stroke-opacity:1"
       d="m 15.674343,43.072587 c 0.637168,-0.254868 10.194695,-5.734519 10.194695,-5.734519 l 76.969942,44.601791 -10.067259,6.371685 z"
       id="path12301" />
    <path
       style="fill:#535353;fill-opacity:1;stroke:none;stroke-width:0.264583px;stroke-linecap:butt;stroke-linejoin:miter;stroke-opacity:1"
       d="m 15.674343,43.072587 c 3.735554,2.067205 77.097378,45.238955 77.097378,45.238955 L 92.64429,102.32925 15.037175,56.835423 15.674343,43.072587"
       id="path14358"
       sodipodi:nodetypes="ccccc" />
    <g
       id="g1083"
       transform="matrix(-0.2047016,0,0,0.2047016,202.94688,78.856851)">
      <path
         style="fill:#0c0c0c;fill-opacity:1;fill-rule:nonzero;stroke:none"
         d="m 170.85937,51.269531 c 53.17188,-6.28125 106.83204,-4.070312 160.15235,-1.300781 7.04687,-0.207031 14.07812,-1.546875 21.1289,-0.777344 6.03907,0.707032 11.44922,3.839844 16.28907,7.347657 9.75,7.199218 17.92968,16.339843 24.8789,26.222656 8.22266,11.859375 10.01172,26.898441 18.30078,38.738281 10.94141,15.23047 28.39063,24.37109 38.78907,40.05859 7.02343,10.17969 8.21093,23.23047 6.88281,35.21094 -1.15234,10.76172 -6.79297,20.5 -14.07031,28.30859 -9.72266,10.32032 -20.88282,19.60157 -28.14063,31.96094 -4.78125,8.13281 -6.62109,17.58985 -11.30859,25.75 -11.16016,16.69141 -27.45313,29.16016 -44.46094,39.44922 -24.60156,14.78125 -51.37109,25.35156 -77.0625,37.99219 -12.06641,5.83984 -23.66016,12.66015 -36.01953,17.89062 -11.41016,4.96094 -23.89844,6.25 -36.02734,8.44922 -10.55079,1.60938 -20.85157,4.46875 -31.26172,6.76953 -25.53125,5.53125 -51.82031,9.82813 -77.98828,7.05078 -17.882816,-1.92187 -36.062504,-8.37109 -48.621097,-21.71093 -4.878907,-5.5 -9.429688,-11.60938 -11.980469,-18.55078 -1.480469,-21.07813 1.390625,-42.10938 4.140625,-62.95704 C 47.082031,277.10156 48.648438,256.5 44.308594,236.55078 40.101563,220.75 30.121094,207.30859 25.101563,191.80859 c -3.933594,-11.73047 -4.8125,-24.94922 -0.191407,-36.60937 7.480469,-13.73828 22.351563,-21.73828 29.199219,-35.92969 3.902344,-7.55078 4.671875,-16.19922 4.402344,-24.558592 C 70.75,82.46875 86.070313,73.730469 102.08984,67.429688 c 22.01172,-8.660157 45.37891,-13.25 68.76953,-16.160157"
         id="path4" />
      <path
         style="fill:#fafafa;fill-opacity:1;fill-rule:nonzero;stroke:none"
         d="m 147.64062,65.691406 c 53.07032,-7.703125 106.83985,-11.011718 160.4375,-9.082031 12.64063,0.820313 25.36329,0.01953 37.96094,1.570313 10.66016,1.429687 20.28125,7.511718 27.19141,15.601562 16.39062,19.058594 21.46094,45.1875 38.19922,64.00781 -7.19141,0.76172 -14.3711,-1.27734 -21.53125,-0.30859 -2.14844,0.1914 -4.04688,1.28125 -5.76953,2.5 10.89062,-1.3711 22.28125,-0.96875 32.48046,3.46875 13.94922,5.72265 25.35938,17.75 29.60157,32.30078 3.26953,11.33984 1.5,23.87891 -4.35157,34.07812 -6.85937,12.02344 -18.07812,21.14063 -30.53906,26.88282 0.57813,0.26953 1.16797,0.52734 1.75781,0.80078 2.26172,-0.85156 4.27344,-2.19141 6.28125,-3.5 0.28125,0.57812 0.83985,1.75 1.1211,2.32812 -3.21094,2.10157 -6.71875,3.92969 -9.08985,7.05078 -5.60156,6.82813 -7.35156,15.71094 -10.51953,23.73829 -3.38281,9.32031 -9.85937,17.07031 -16.74218,24.03125 -16.57813,16.03906 -37,27.25 -57.41797,37.60156 -14.60157,7.13672 -29.44141,13.77734 -44.10938,20.77734 -12.85156,5.99219 -24.83203,13.64063 -37.72265,19.54297 -2.85938,1.17969 -5.70704,2.59766 -8.82032,2.91797 -4.39843,0.0391 -8.75,-1.23047 -13.16015,-0.71875 -7.71875,0.82031 -14.89844,3.95703 -22.16797,6.45703 -15.0586,5.70313 -30.99219,8.52344 -46.85938,10.82031 C 136.01172,390.92969 117.85156,392 99.929688,389.69922 85.289063,387.71875 69.980469,383.48828 59.21875,372.76953 53.488281,366.66016 48.730469,358.58984 49.5,349.91797 c -0.191406,-34.82813 9.128906,-69.17969 6.269531,-104.06641 -1.199218,-10.66015 -2.929687,-21.67969 -8.578125,-31 -4.453125,-7.83984 -10.8125,-14.83203 -12.960937,-23.78125 -2.070313,-10.64062 -2.242188,-22.19922 2.621094,-32.14062 6.097656,-12.89844 20.027343,-19.94922 25.796875,-33.07031 3.121093,-6.8086 3.382812,-14.4375 2.941406,-21.78125 15.121094,-17.656255 36.261716,-30.539067 59.218746,-34.777349 15.67188,-3.039062 31.53125,0.269532 47.25,1.039063 31.58985,2.050781 62.38282,-8.800781 93.96094,-7.28125 14.53125,0.960937 28.71875,5.152344 41.85938,11.351562 14.5,6.808594 27.58203,16.160157 41.10156,24.660157 4.32812,2.578127 8.57812,5.398437 13.30078,7.249997 -14.20313,-11.210935 -28.79297,-22.171872 -44.74219,-30.808591 -16.75,-8.992188 -35.46875,-14.523438 -54.51953,-15.101563 -31.57031,-1 -62.46875,8.148438 -94.03906,7.589844 -7.15235,-0.230469 -14.3711,-0.628906 -21.33985,-2.308594"
         id="path6" />
      <path
         style="fill:#0c0c0c;fill-opacity:1;fill-rule:nonzero;stroke:none"
         d="m 225.14062,75.628906 c 25.23829,-3.507812 51.51954,-2.128906 75.64844,6.519532 14.74219,5.261718 28.51953,13.351562 40,24.023442 3.72266,3.67968 7.66016,7.25781 10.46094,11.72656 -19.76172,-17.75 -43.28906,-31.957034 -69.42188,-37.789065 C 265.98828,76.410156 249.55078,75.730469 233.37109,77.199219 220.75,78.550781 208.76953,83.550781 196.01953,84.03125 172.62109,85.578125 149.21094,83.011719 126,80.171875 c -2.28125,-0.222656 -4.55078,-0.660156 -6.83984,-0.570312 -4.01953,2.019531 -7.08203,5.707031 -11.62891,6.707031 3.01953,-5.070313 8.4375,-8.386719 14.25781,-9.078125 11.60156,-1.359375 22.85156,2.550781 34.26953,3.789062 23.17188,2.058594 46.23047,-1.988281 69.08203,-5.390625"
         id="path8" />
      <path
         style="fill:#0c0c0c;fill-opacity:1;fill-rule:nonzero;stroke:none"
         d="m 242.05859,88.96875 c 23.33203,-2.4375 47.71094,-0.730469 69.42969,8.660156 10.07031,4.582034 20.47266,11.839844 23.33984,23.160154 -7.26953,-12.92968 -21.10937,-20.36718 -34.8789,-24.480466 -21.03906,-6.179688 -43.3086,-7.046875 -65.07031,-5.96875 2.3125,-0.800781 4.74218,-1.191406 7.17968,-1.371094"
         id="path10" />
      <path
         style="fill:#0c0c0c;fill-opacity:1;fill-rule:nonzero;stroke:none"
         d="m 120.89844,97.121094 c 15.64062,-5.101563 32.66015,-5.332031 48.67968,-1.890625 2.94141,0.640625 6.21094,0.660156 8.76172,2.441406 1.71094,0.917969 0.16016,2.769535 -0.1914,4.000005 C 163.87109,96 148.07812,94.050781 132.89062,96.449219 c -9.17187,1.652344 -18.57031,5.492191 -24.35937,13.109371 -2.51172,3.17188 -3.71094,7.05079 -5.28125,10.71094 0.30078,-5.67969 2.41016,-11.01953 4.94922,-16.03125 3.33984,-3.6289 8.14062,-5.48828 12.69922,-7.117186"
         id="path12" />
      <path
         style="fill:#0c0c0c;fill-opacity:1;fill-rule:nonzero;stroke:none"
         d="m 240.30078,94.121094 c 1.57031,-1.53125 3.34766,-0.191406 4.92969,0.519531 -5.21094,2.9375 -9.10938,7.847655 -11.1211,13.468755 -0.28906,3.35156 0.21875,6.80078 -0.82812,10.07031 -2.33203,-4.19141 -1.91016,-9.19922 -1.51172,-13.78906 3.30859,-3.03907 5.08984,-7.378911 8.53125,-10.269536"
         id="path14" />
      <path
         style="fill:#0c0c0c;fill-opacity:1;fill-rule:nonzero;stroke:none"
         d="m 166.76172,106.96875 c 1.25781,-0.35937 2.51953,-0.6875 3.79687,-1.00781 1.32032,2.73047 2.8711,5.35937 4.98047,7.57031 -0.0898,6.60938 0.0898,13.21875 -0.0898,19.82812 -5.30078,-4.75781 -0.28906,-12.30078 -2.16016,-18.18749 -2.02734,-2.86329 -4.98047,-4.99219 -6.52734,-8.20313"
         id="path16" />
      <path
         style="fill:#0c0c0c;fill-opacity:1;fill-rule:nonzero;stroke:none"
         d="m 265.14844,119.16016 c 16.39062,-2.96875 34,-2.64063 49.46093,4.14843 9.85938,4.26172 18.35938,12.67969 20.58985,23.45313 -2.64063,2.07812 -5.66797,3.9375 -9.12891,4.01953 -7.92187,0.35937 -15.25,-3.48047 -23.08203,-4.01172 -21.69922,-1.75 -43.13672,5.08203 -61.97656,15.42188 -4.80078,-4.89063 -12.92188,-6.6211 -15.30078,-13.64063 -1.83203,-4.39062 1.53906,-8.37891 4.07812,-11.64062 8.98047,-10.19141 22.38281,-15.0586 35.35938,-17.75"
         id="path18" />
      <path
         style="fill:#fafafa;fill-opacity:1;fill-rule:nonzero;stroke:none"
         d="m 245.55859,136.60937 c 8.15235,-5 17.54297,-7.32031 26.5625,-10.21093 -1.14062,4.83984 1.98047,8.9414 2.66016,13.55078 -6.20313,-0.71094 -12.37109,0.97265 -17.67188,4.15234 -5.71093,3.23828 -12.10937,7.79688 -18.98046,5.07813 -0.66797,-5.44141 3.03125,-9.96094 7.42968,-12.57032"
         id="path20" />
      <path
         style="fill:#0c0c0c;fill-opacity:1;fill-rule:nonzero;stroke:none"
         d="m 122.12891,129.35937 c 12.26171,-3.03124 25.25,-0.92968 37.01171,3.17188 7.92969,3.02734 16.21094,6.95703 20.94922,14.34766 4.96094,-1.4375 10.57032,-3.59766 15.44922,-0.67969 -0.0977,1.94922 -0.0273,4.26172 -1.66015,5.64062 -3.89063,3.85938 -10.39063,3.33985 -13.87891,7.8086 -0.0117,7 0.0312,14 -0.0312,21 -6.05859,6.74218 -17.5,8.0625 -20.36719,17.61328 4.84766,8.39844 10.83985,17.4375 20.51953,20.63672 3.89844,0.30078 6.41016,-3.28907 9.70703,-4.73828 1.20313,0.71093 2.40235,1.4414 3.59375,2.17968 -1.89062,4.67188 -4.21093,9.69922 -8.77343,12.30078 -2.98828,1.64063 -6.51953,0.57032 -9.22657,-1.10156 -9.45312,-5.91797 -14.9414,-16.30078 -24.29296,-22.33984 -1.87891,2.05078 -3.98829,4.85156 -7.09766,4.5625 -1.57031,-2.0625 -2.19141,-4.64063 -3.32031,-6.94141 -8.78125,2.17969 -15.94141,10.89844 -25.58203,9.32031 21.26171,-8.5 37.91015,-24.60156 55.87109,-38.25 0,-5.37109 0,-10.75 0,-16.1289 -8.42969,-5.04297 -18.44922,-6.03125 -28.03125,-6.97266 -12.44922,-1.25781 -25.37891,-1.28906 -37.07812,-6.27734 1.71093,-7.83985 8.67968,-13.38281 16.23828,-15.15235"
         id="path22" />
      <path
         style="fill:#fafafa;fill-opacity:1;fill-rule:nonzero;stroke:none"
         d="m 310,135.26172 c 4.14062,-0.72266 8.75,-0.1836 11.91016,2.82812 1.39843,0.98047 1.17968,2.78125 1.17968,4.26172 -2.98828,-2.60156 -6.8789,-2.5 -10.57031,-3.02344 -2.05859,-0.19921 -2.09766,-2.53906 -2.51953,-4.0664"
         id="path24" />
      <path
         style="fill:#fafafa;fill-opacity:1;fill-rule:nonzero;stroke:none"
         d="m 121.16016,137.96094 c 4.96875,0.27734 9.89062,-0.69141 14.85937,-0.71094 2.39063,-0.0781 4.60938,0.96094 6.30859,2.60156 -4.14843,-0.12109 -8.27734,0.17969 -12.40625,0.57031 -3.08203,0.23829 -6.62109,0.11719 -8.76171,-2.46093"
         id="path26" />
      <path
         style="fill:#0c0c0c;fill-opacity:1;fill-rule:nonzero;stroke:none"
         d="m 339.80078,137.76953 c 7.05859,-0.84766 13.37891,4.05078 20.5,2.5 -1.17969,7.05078 -11.35156,8.62891 -16.21094,4.35156 3.23828,-0.5 7.58203,0.98047 9.6211,-2.35156 -4.88282,-0.37891 -10.19141,-0.91016 -13.91016,-4.5"
         id="path28" />
      <path
         style="fill:#0c0c0c;fill-opacity:1;fill-rule:nonzero;stroke:none"
         d="m 68.878906,142.71094 c 7.0625,1.1289 14.101563,-0.44141 21.0625,-1.51953 4.109375,-0.74219 8.609375,0.19921 11.527344,3.32812 -12.558594,-1.64844 -25.667969,-1.44141 -37.597656,3.25 -9.980469,3.69922 -19.0625,11.17969 -22.78125,21.37109 -3.398438,8.98047 -2.390625,19 0.519531,27.96875 0.679688,1.87891 1.152344,4.08985 2.890625,5.3125 5.980469,4.51954 14.167969,4.54688 20.128906,9.03907 1.800782,1.1875 1.320313,3.36718 1.25,5.21093 -2.730468,-1.76171 -5.296875,-3.82031 -8.339843,-5.02343 -5.738282,-2.5 -12.359375,-3.69922 -16.9375,-8.27735 -4.410157,-9.71093 -5.78125,-21 -3.242188,-31.42187 3.210938,-13.51953 13.890625,-24.64063 26.78125,-29.46094 1.539063,-0.56641 3.167969,0.14063 4.738281,0.22266"
         id="path30" />
      <path
         style="fill:#0c0c0c;fill-opacity:1;fill-rule:nonzero;stroke:none"
         d="m 378.48828,143.71094 c 5.32031,-1.71094 11.01172,-1.10938 16.52344,-1.25 10.30859,-0.082 21.29687,2.30859 29.07812,9.48828 7.01172,6.65234 9.73047,16.51172 10.28907,25.89062 0.5,5.35157 -0.23829,10.69141 -0.39063,16.03125 -0.57812,-0.65234 -1.16016,-1.30078 -1.73828,-1.9414 0.82812,-8.3086 0.60937,-16.71094 -0.23828,-25 -3.39063,-8.25782 -9.63281,-15.80078 -18.13281,-19.07032 -11.25782,-4.50781 -23.60938,-2.83984 -35.39063,-4.14843"
         id="path32" />
      <path
         style="fill:#0c0c0c;fill-opacity:1;fill-rule:nonzero;stroke:none"
         d="m 339.21875,149.19922 c 3.07031,-1.60938 6.45312,0.78906 7.87109,3.53125 -3.05859,0.10937 -5.76172,-1.44922 -7.87109,-3.53125"
         id="path34" />
      <path
         style="fill:#0c0c0c;fill-opacity:1;fill-rule:nonzero;stroke:none"
         d="m 366.89062,151.76953 c 12.94922,-2.62109 27.16797,-0.46875 38.0586,7.28125 9.8789,6.87891 16.76172,18.55859 16.12109,30.80078 -0.1914,10.4375 -6.10937,19.9375 -13.92969,26.52735 -3.08984,-6.76954 1,-13.48047 3.25782,-19.75 2.91015,-7.12891 1.30078,-15.25782 -2.16797,-21.87891 -3.42188,-6.69141 -9.96094,-11.44141 -17.14063,-13.39063 -6.39062,-1.98046 -13.16015,-1.71875 -19.75,-1.32031 -6.69922,6.49219 -15.64843,9.94141 -24.51172,12.33203 -11.6289,2.92969 -23.84765,3.82813 -35.71875,2.02735 -7.98828,-1.37891 -16.4375,-4.25 -21.55078,-10.91797 -2.76953,-3.44922 -3.66015,-7.92969 -3.82031,-12.25 10.37109,1.51953 16.41016,11.57031 26.14063,14.64062 8.85156,2.80078 18.66015,1.83985 27.19921,-1.60937 9.4336,-3.80078 17.66016,-10.51172 27.8125,-12.49219"
         id="path36" />
      <path
         style="fill:#0c0c0c;fill-opacity:1;fill-rule:nonzero;stroke:none"
         d="m 51.789063,162.62891 c 5.109375,-4.39063 11.589843,-6.60938 17.839843,-8.82813 -3.210937,6.78906 -13.117187,5.87891 -15.769531,13.12891 -2.128906,6.51172 0.472656,13.64843 -1.890625,20.1914 -0.597656,-0.87109 -1.1875,-1.73047 -1.800781,-2.58984 0.113281,-7.33203 1.261719,-14.58984 1.621094,-21.90234"
         id="path38" />
      <path
         style="fill:#0c0c0c;fill-opacity:1;fill-rule:nonzero;stroke:none"
         d="m 69.417969,164.39062 c 8.320312,-3.98046 17.953125,-2.28906 26.453125,0.21875 7.757816,2.44141 15.339846,5.99219 21.347656,11.58204 3.40234,-1.83985 6.26953,-4.61329 9.88281,-6.08204 2.10938,-0.64062 4.07031,0.32032 5.76953,1.46875 -0.22265,4.17188 -1.73047,8.66016 -5.74218,10.61329 -7.98828,3.84765 -17.14844,2.23046 -25.70703,2.6289 -0.30079,-5.10937 -2.832036,-10.75 -8.210942,-12.10937 C 82.25,169.96875 71.601563,175.39844 60.75,176.14062 c 1.167969,-4.87109 3.941406,-9.62109 8.667969,-11.75"
         id="path40" />
      <path
         style="fill:#0c0c0c;fill-opacity:1;fill-rule:nonzero;stroke:none"
         d="m 372.39844,168.41016 c 1.28125,-1.73047 3.58203,-1.57032 5.48047,-1.83985 0.19921,4.76953 0.80078,9.82813 3.79296,13.75 6.09766,8.3711 17.62891,10.21094 23.76954,18.55078 -4.98047,4.57032 -11.70313,1.00782 -17.46094,0.64844 -3.08203,-0.55078 -3.94922,3.16016 -5.21875,5.19922 -1.94141,3.17187 -2.13281,6.98047 -0.69141,10.38281 1.23828,2.09766 -1.62109,3 -2.60937,4.34766 -10.6211,10.74219 -17.76172,24.24219 -26.69141,36.30078 -7.01953,9.78125 -15.17969,18.82031 -24.73047,26.17969 -16.35937,12.6289 -34.53906,22.96875 -53.89844,30.23047 -18.23046,6.9414 -37.8125,8.96875 -57.12109,10.51953 -22.26953,1.5 -44.64062,1.60937 -66.91016,0.0195 -15.53906,-1.27735 -31.18749,-3.05078 -46.12109,-7.71875 -6.070311,-2.01172 -12.406249,-4.37891 -16.726561,-9.32031 C 80.839844,298.44922 77.378906,289.19141 74.910156,280 c -4.949218,-19.85938 -5.589843,-40.71094 -2.78125,-60.92969 1.300782,-9.55859 5.992188,-18.10937 10.480469,-26.48047 2.171875,-3.48828 1.019531,-7.80859 2.359375,-11.51953 0.792969,-2.14844 3.441406,-0.9414 5.113281,-1.10156 4,8.53125 1.597657,18.33984 4.507813,27.10937 15.570316,15.5 37.398436,23.04297 58.839846,25.75 31,3.64063 62.28906,-1.14843 92.41015,-8.45703 43.25,-10.83203 84.83985,-27.40234 125.16016,-46.25 0.0898,-3.24218 -0.55859,-6.88281 1.39844,-9.71093"
         id="path42" />
      <path
         style="fill:#0c0c0c;fill-opacity:1;fill-rule:nonzero;stroke:none"
         d="m 229.57031,191.94141 c 0.28906,-5.64063 6.42969,-8.05079 11.32813,-7.42969 6.17968,0.71875 12.91015,2.33984 17.40234,6.9375 1.4375,3.58203 0.9375,7.67187 0.85938,11.46094 -0.58985,5.51953 -2.44922,12.16015 -8.03125,14.53906 -2.64063,1.28906 -5.48047,-0.0273 -8.07032,-0.76953 0,-1.73047 -0.36718,-3.57032 0.44141,-5.17969 1.51953,-3.28906 5.62891,-4.55859 6.80078,-8.07031 0.91797,-2.44922 0.0781,-5.01953 -0.37109,-7.46094 -6.5586,-2.52734 -13.94922,-1.00781 -20.35938,-4.02734"
         id="path44" />
      <path
         style="fill:#0c0c0c;fill-opacity:1;fill-rule:nonzero;stroke:none"
         d="m 261.55078,191.60937 c -0.73047,-2.10937 -1.35156,-5.25 1.30078,-6.21875 0.69922,0.19922 2.07813,0.57813 2.76953,0.78125 -0.92968,0.69922 -1.85937,1.38672 -2.79297,2.07813 0.1836,2.53906 2.0625,4.64062 4.54297,5.17187 9.07813,2.25 18.52735,-0.75 27.64844,0.90625 2,0.1836 2.64063,2.01172 2.32031,3.80079 -8.41015,-4.67969 -18.23047,-0.94922 -27.25,-1.8086 -3.26172,-0.21094 -7.3789,-1.21094 -8.53906,-4.71094"
         id="path46" />
      <path
         style="fill:#0c0c0c;fill-opacity:1;fill-rule:nonzero;stroke:none"
         d="m 50.378906,187.14062 c 0.492188,0.3086 1.492188,0.9375 1.992188,1.25782 2.648437,5.41015 8.449219,7.98047 12.390625,12.27343 -3.480469,-0.42187 -7.210938,-1.0625 -9.863281,-3.5625 -2.886719,-2.48828 -3.867188,-6.3789 -4.519532,-9.96875"
         id="path48" />
      <path
         style="fill:#fafafa;fill-opacity:1;fill-rule:nonzero;stroke:none"
         d="m 333.03906,207.60937 c 14.67969,-4.8789 26.44141,-17.53906 42.51172,-18.21093 0.25,8.70312 -3.78906,17.17968 -10.35156,22.8125 -9.14063,7.98828 -21.21094,11.52734 -33.01953,13.16797 2.89062,-5.60938 -0.0508,-11.84766 0.85937,-17.76954"
         id="path50" />
      <path
         style="fill:#0c0c0c;fill-opacity:1;fill-rule:nonzero;stroke:none"
         d="m 432.03906,192.98828 c 0.5625,0.75 1.1211,1.51172 1.67969,2.26172 -1.05859,7.12109 -2.34766,14.21094 -4.11719,21.19141 -6.0625,3.59765 -11.71094,8.34765 -18.75,9.85937 -1.80078,0.55859 -3.58984,-0.0898 -5.3125,-0.58984 6.76172,-1.10157 13.64063,-3.72266 18.10938,-9.14063 5.4414,-6.57031 7.80078,-15.19922 8.39062,-23.58203"
         id="path52" />
      <path
         style="fill:#0c0c0c;fill-opacity:1;fill-rule:nonzero;stroke:none"
         d="m 212.82031,201.73047 c 8.42969,-2.28906 17.42969,-1.28906 25.66797,1.30078 0.28125,3.75781 -0.008,7.62891 -2.02734,10.91016 -9.07032,-8.14063 -21.58985,0.71875 -31.74219,-4.08204 0.51953,-4.21093 4.17969,-7.14843 8.10156,-8.1289"
         id="path54" />
      <path
         style="fill:#fafafa;fill-opacity:1;fill-rule:nonzero;stroke:none"
         d="m 83.28125,219.03906 c 1.128906,-2.55078 2.539063,-4.98047 4.46875,-7 -0.46875,3.03125 -1.339844,6.03906 -3.261719,8.5 -0.296875,-0.3789 -0.90625,-1.1289 -1.207031,-1.5"
         id="path56" />
      <path
         style="fill:#fafafa;fill-opacity:1;fill-rule:nonzero;stroke:none"
         d="m 267.98047,227.87891 c 18.75,-4.8086 36.98047,-11.52735 55.91797,-15.66016 -0.11719,8.15234 -4.04688,16.25 -11.07813,20.60156 -12.33984,7.82813 -27.51172,8.66016 -40.58203,14.85938 -1.64844,-6.55078 -2.48828,-13.28125 -4.25781,-19.80078"
         id="path58" />
      <path
         style="fill:#fafafa;fill-opacity:1;fill-rule:nonzero;stroke:none"
         d="m 88.679688,241.80859 c 0.121093,-7.55859 4.019531,-14.45703 8.191406,-20.53906 2.527344,9.57031 0.109375,19.58984 -2.421875,28.90234 -3.289063,-1.48046 -5.988281,-4.55078 -5.769531,-8.36328"
         id="path60" />
      <path
         style="fill:#fafafa;fill-opacity:1;fill-rule:nonzero;stroke:none"
         d="m 342.03125,235.17187 c 5.34766,-3.05078 11.37891,-4.84375 17.50781,-5.28125 -10.34765,8.4375 -12.82812,24.69922 -26.52734,29.26954 -1.57031,-3.46875 -2.89063,-7.28907 -2.01172,-11.14063 1.26172,-5.80859 6.05859,-10.03906 11.03125,-12.84766"
         id="path62" />
      <path
         style="fill:#fafafa;fill-opacity:1;fill-rule:nonzero;stroke:none"
         d="m 108.12109,254.39844 c -0.99218,-7.82032 -5.40234,-18.02735 1.75,-24.17969 3.75782,3.79297 8.80079,5.67187 13.87891,6.91016 0.55859,4.83984 -2.94922,8.64062 -4.35156,12.99218 -0.8086,2.4375 0.41015,4.83985 1.36328,7.02735 -4.08203,-1.4375 -8.15234,-3.77735 -12.64063,-2.75"
         id="path64" />
      <path
         style="fill:#fafafa;fill-opacity:1;fill-rule:nonzero;stroke:none"
         d="m 217.92187,240.46094 c 13.47657,-3.03125 26.97657,-6.01172 40.65625,-8.0625 1.94141,6.55078 2.60157,13.39062 4.4336,19.96093 -10.5,1.12891 -20.45313,4.96875 -30.88281,6.44922 -6.07032,0.92188 -12.23829,0.83203 -18.33985,0.35157 0.0625,-5.82032 -0.10937,-11.62891 0.0508,-17.44141 1.14063,-0.86719 2.73828,-0.83984 4.08203,-1.25781"
         id="path66" />
      <path
         style="fill:#fafafa;fill-opacity:1;fill-rule:nonzero;stroke:none"
         d="m 128.96875,254.96094 c 4.37109,-4.23047 1.78125,-11.19922 5.62109,-15.72266 9.53125,5.29297 20.96875,2.19141 30.98047,5.87109 -3.51172,3.96094 -0.69922,9.40235 -1.26172,14.08985 -11.84765,-0.0274 -24.16797,0.33984 -35.33984,-4.23828"
         id="path68" />
      <path
         style="fill:#fafafa;fill-opacity:1;fill-rule:nonzero;stroke:none"
         d="m 175.94922,243.82812 c 9.75,1.34375 19.08203,-2.6289 28.76953,-2.64843 0.0508,6 0.0117,12.01172 0.0312,18.01172 -10.53125,0.0195 -21.05078,0.0469 -31.57813,-0.0117 -1.38281,-5.5 3.14844,-9.92969 2.77735,-15.35157"
         id="path70" />
      <path
         style="fill:#fafafa;fill-opacity:1;fill-rule:nonzero;stroke:none"
         d="m 276.80078,263.98047 c 15.66016,-3.80078 30.39844,-10.51172 44.66016,-17.8711 -1.30078,7.94141 0.52734,16.55079 6.66015,22.10157 -14.42968,8.33984 -26.88281,19.85937 -42.15234,26.77734 -0.1875,-9.07812 -8.35938,-15.25781 -9.25781,-24.10937 -0.35157,-2.30079 -0.0899,-4.60938 0.0898,-6.89844"
         id="path72" />
      <path
         style="fill:#fafafa;fill-opacity:1;fill-rule:nonzero;stroke:none"
         d="m 222.78125,279.66016 c 15.5,-1.96094 30.12891,-7.73829 44.59766,-13.35938 -0.39063,5.19922 -0.5,10.66797 1.90234,15.44922 2.77734,5.76953 6.64844,11.17187 7.45703,17.69922 -13.58984,3.33984 -26.63672,9.08203 -40.67969,10.37109 -4.28906,0.50781 -8.60937,-0.10156 -12.78906,-1.03906 1.71875,-9.67188 -2.00781,-19.39063 -0.48828,-29.12109"
         id="path74" />
      <path
         style="fill:#fafafa;fill-opacity:1;fill-rule:nonzero;stroke:none"
         d="m 85.550781,281.32812 c -0.921875,-1.8164 -0.789062,-3.8789 -0.460937,-5.8164 2.160156,5.0664 5.898437,9.26953 8.050781,14.33984 1.140625,2.38672 0.550781,5.07031 -0.472656,7.37891 -1.207031,-5.78906 -4.726563,-10.60938 -7.117188,-15.90235"
         id="path76" />
      <path
         style="fill:#fafafa;fill-opacity:1;fill-rule:nonzero;stroke:none"
         d="m 103.07813,281.62109 c 7.07031,6.48828 10.78125,15.64063 13.6914,24.57813 -5.5,-1.41797 -11.28906,-2.0586 -16.42969,-4.57813 -1.539059,-0.65234 -2.019527,-2.33203 -2.62109,-3.71093 0.839844,0.73828 1.660156,1.48828 2.48047,2.26171 1.76172,-0.49218 3.82031,-0.68359 5.07031,-2.20312 2.01953,-5.77734 -5.898436,-10.82813 -2.1914,-16.34766"
         id="path78" />
      <path
         style="fill:#fafafa;fill-opacity:1;fill-rule:nonzero;stroke:none"
         d="m 177.91016,286.46875 c 12.12109,1.0625 24.28906,-0.96875 35.87109,-4.50781 0.60937,9.66015 -2.26172,19.91797 1.79687,29.08984 -10.71875,3.58984 -22.15625,1.62891 -33.21875,1.94922 -1.09765,-8.91016 -3.25,-17.64063 -4.44921,-26.53125"
         id="path80" />
      <path
         style="fill:#fafafa;fill-opacity:1;fill-rule:nonzero;stroke:none"
         d="m 119.25,286.17969 c 5.46094,-0.37891 9.98828,3.80859 15.53125,2.9414 -0.28125,7.94922 5.4375,14.16016 6.85937,21.69922 -5.17187,-0.75 -10.66015,-0.98047 -15.16015,-3.9414 0.58984,-1.85938 1.6289,-3.87891 0.67969,-5.82032 -1.83203,-5.36718 -6.19922,-9.4375 -7.91016,-14.8789"
         id="path82" />
      <path
         style="fill:#fafafa;fill-opacity:1;fill-rule:nonzero;stroke:none"
         d="m 144.12109,288.60156 c 6.71875,-1.57031 14.52735,-2.48047 20.41016,1.91016 6.70703,5.42969 7.57812,14.70703 8.57812,22.67969 -6.71093,0.27734 -13.50781,-0.0899 -19.91796,-2.26954 -1.80079,-7.91015 -6.65235,-14.63281 -9.07032,-22.32031"
         id="path84" />
      <path
         style="fill:#0c0c0c;fill-opacity:1;fill-rule:nonzero;stroke:none"
         d="m 305.71875,310.82031 c 10.92187,-5 22.16016,-10.10156 34.26172,-11.21875 -19.53125,6.98828 -37.60156,17.27735 -56.3711,25.97656 -24.25781,11.3125 -50.46093,20.79297 -77.60937,19.6211 -10.01172,-1.17969 -19.98828,0.89062 -30.01953,0.78906 -19.26953,-0.22656 -38.76953,2.16016 -57.85938,-1.59766 -7.90234,-1.71093 -16.14062,-4.74218 -21.289059,-11.32031 -2.664062,-3.16015 -4.050781,-7.1289 -4.84375,-11.1289 6.941407,11.66015 20.183599,17.23828 32.871099,20.11718 15.76953,3.35938 32.06249,4.47266 48.14062,3.0625 21.55859,-0.92187 43.39844,-0.73047 64.51172,-5.82031 24.09765,-5.85937 45.97656,-17.87891 68.20703,-28.48047"
         id="path86" />
      <path
         style="fill:#0c0c0c;fill-opacity:1;fill-rule:nonzero;stroke:none"
         d="m 328.05859,313.21094 c 10.96094,-5.40235 21.67969,-12.57032 34.19141,-13.51172 -13.58984,9.15234 -28.39844,16.37109 -43.28906,23.16015 -58.6211,26.01172 -122.91016,38.33204 -186.92969,38.40235 -12.74219,0.0703 -25.73047,-0.46094 -37.980469,-4.30078 -9.71875,-3.04297 -18.800781,-9.15235 -23.929687,-18.10938 -0.152344,-3.78125 -1.660156,-7.97265 -0.171875,-11.55078 0.5,-0.28906 1.5,-0.85937 2,-1.15234 0.101562,4.60156 0.03125,9.21093 0.05078,13.8125 5.519531,5.57031 12.488281,9.5 19.832031,12.14062 11.26953,4.14844 23.26953,5.8086 35.1875,6.67969 18.73047,1.12891 37.51172,-0.0312 56.15234,-2 50.45704,-5.30078 99.63672,-20.79297 144.88672,-43.57031"
         id="path88" />
      <path
         style="fill:#0c0c0c;fill-opacity:1;fill-rule:nonzero;stroke:none"
         d="m 144.64062,331.46094 c 14.1211,0.12109 28.25,-0.22266 42.34766,0.25781 9.32031,0.0195 19.36328,-2.63672 28.16016,1.5 -15.36719,-0.66797 -30.71875,0.55078 -46.08985,0.58203 -8.14843,-0.21875 -16.52734,-0.0117 -24.41797,-2.33984"
         id="path90" />
    </g>
  </g>
</svg>
